<?xml version="1.0" encoding="UTF-8"?>
<svg width="512" height="512" viewBox="0 0 512 512" xmlns="http://www.w3.org/2000/svg">
    <!-- 背景圆形 -->
    <circle cx="256" cy="256" r="240" fill="#2196F3"/>
    
    <!-- 耳机图标 -->
    <path d="M256 160c-44.2 0-80 35.8-80 80v32c0 8.8 7.2 16 16 16h16v-64h-16c-8.8 0-16-7.2-16-16s7.2-16 16-16h16c0-26.5 21.5-48 48-48s48 21.5 48 48h16c8.8 0 16 7.2 16 16s-7.2 16-16 16h-16v64h16c8.8 0 16-7.2 16-16v-32c0-44.2-35.8-80-80-80z" fill="white"/>
    
    <!-- 摩斯电码波形 -->
    <path d="M160 320h32v32h-32zM224 320h64v32h-64zM320 320h32v32h-32z" fill="white"/>
    <path d="M192 352h32v32h-32zM288 352h32v32h-32z" fill="white"/>
</svg> 